<svg width="330" height="274" viewBox="0 0 330 274" fill="none" xmlns="http://www.w3.org/2000/svg">
<path d="M61.1002 203.7H0.200195V176.2L61.1002 103.9H90.2002V177.8H105.3V203.7H90.2002V226.2H61.1002V203.7ZM61.1002 177.8V140L28.9002 177.8H61.1002Z" fill="#0C6932"/>
<path d="M115.7 165.6C115.7 142.7 119.8 126.8 128 117.6C136.2 108.5 148.8 103.9 165.6 103.9C173.7 103.9 180.3 104.9 185.5 106.9C190.7 108.9 194.9 111.5 198.2 114.7C201.5 117.9 204.1 121.3 206 124.8C207.9 128.3 209.4 132.4 210.6 137.1C212.8 146.1 214 155.4 214 165.1C214 186.9 210.3 202.9 202.9 213C195.5 223.1 182.8 228.2 164.8 228.2C154.7 228.2 146.5 226.6 140.3 223.4C134.1 220.2 129 215.4 125 209.2C122.1 204.8 119.8 198.7 118.2 191C116.5 183.3 115.7 174.9 115.7 165.6ZM148.8 165.6C148.8 180.9 150.2 191.4 152.9 197C155.6 202.6 159.5 205.4 164.7 205.4C168.1 205.4 171 204.2 173.5 201.8C176 199.4 177.8 195.7 179 190.5C180.2 185.4 180.8 177.4 180.8 166.5C180.8 150.5 179.4 139.8 176.7 134.3C174 128.8 169.9 126.1 164.5 126.1C159 126.1 155 128.9 152.5 134.5C150.1 140.1 148.8 150.5 148.8 165.6Z" fill="#0C6932"/>
<path d="M285.1 203.7H224.2V176.2L285.1 103.9H314.2V177.8H329.3V203.7H314.2V226.2H285.1V203.7ZM285.1 177.8V140L253 177.8H285.1Z" fill="#0C6932"/>
<path opacity="0.2" d="M48.5265 90.8184C70.3544 106.215 98.5926 126.433 106.382 175.243H108.005C100.459 127.025 73.1944 106.215 51.3665 90.8184H48.5265V90.8184Z" fill="black"/>
<path d="M161.398 243.425C175.193 243.425 188.825 236.911 195.479 226.337C199.617 219.823 204.324 206.035 190.123 187.762L188.825 188.862C198.887 201.805 200.672 214.832 194.018 225.407C185.904 238.35 166.754 244.863 150.444 240.211C133.728 235.473 123.504 220.246 122.53 198.59C119.203 124.317 81.3085 101.392 53.7194 84.7265C36.5168 74.3214 24.1017 66.8771 26.8606 51.058C27.2663 48.8585 28.0777 47.3359 29.4572 46.4053C33.0276 43.9521 39.9248 45.644 47.877 47.5896C63.5379 51.3964 84.96 56.6412 97.7809 33.97L96.4014 33.124C84.2297 54.6955 64.2682 49.8737 48.2827 45.9823C39.9248 43.9521 32.703 42.1756 28.6458 45.0518C26.9417 46.2361 25.8057 48.0972 25.4 50.8042C22.4788 67.8076 35.9488 75.9287 53.0702 86.2492C80.4159 102.745 117.824 125.416 121.15 198.759C122.205 221.262 132.754 236.996 150.2 241.987C153.771 242.918 157.584 243.425 161.398 243.425Z" fill="#FCDD59"/>
<path opacity="0.2" d="M161.398 243.425C175.193 243.425 188.825 236.911 195.479 226.337C199.617 219.823 204.324 206.035 190.123 187.762L188.825 188.862C198.887 201.805 200.672 214.832 194.018 225.407C185.904 238.35 166.754 244.863 150.444 240.211C133.728 235.473 123.504 220.246 122.53 198.59C119.203 124.317 81.3085 101.392 53.7194 84.7265C36.5168 74.3214 24.1017 66.8771 26.8606 51.058C27.2663 48.8585 28.0777 47.3359 29.4572 46.4053C33.0276 43.9521 39.9248 45.644 47.877 47.5896C63.5379 51.3964 84.96 56.6412 97.7809 33.97L96.4014 33.124C84.2297 54.6955 64.2682 49.8737 48.2827 45.9823C39.9248 43.9521 32.703 42.1756 28.6458 45.0518C26.9417 46.2361 25.8057 48.0972 25.4 50.8042C22.4788 67.8076 35.9488 75.9287 53.0702 86.2492C80.4159 102.745 117.824 125.416 121.15 198.759C122.205 221.262 132.754 236.996 150.2 241.987C153.771 242.918 157.584 243.425 161.398 243.425Z" fill="white"/>
<path d="M114.497 13.9227C108.898 13.8381 103.461 15.6992 103.461 15.6992C103.461 15.6992 94.5355 31.6029 93.4807 35.2405C93.8864 38.7934 99.6476 44.715 99.6476 44.715L114.497 13.9227Z" fill="#FCDD59"/>
<path opacity="0.3" d="M114.497 13.9227C108.898 13.8381 103.461 15.6992 103.461 15.6992C103.461 15.6992 94.5355 31.6029 93.4807 35.2405C93.8864 38.7934 99.6476 44.715 99.6476 44.715L114.497 13.9227Z" fill="white"/>
<path d="M88.1248 91.0713C91.4517 86.6724 94.7787 82.1044 97.5376 77.1979C98.1867 76.0136 98.8359 74.7447 99.485 73.4758C99.8096 72.799 100.134 72.0377 100.459 71.2763C100.783 70.5996 101.351 69.669 101.433 68.9923C102.406 58.2488 98.9171 50.3815 102.244 41.7529L115.633 47.167C115.633 47.167 114.497 62.4785 111.9 71.6993C110.277 77.3671 106.626 82.2735 103.137 86.8416C102.001 88.2797 100.946 89.7178 99.8908 91.1559C98.8359 92.5095 97.6999 93.7784 96.645 95.1319C95.1032 97.1621 94.5353 99.1078 95.7524 101.561C95.8336 101.73 95.9147 101.815 95.9147 101.984C96.2393 102.576 94.6975 103.338 93.6427 101.984C92.0198 99.7846 92.2632 99.9537 90.8026 98.0927C89.91 96.9929 88.9363 95.724 88.1248 94.7089C87.3134 93.6092 87.3134 92.0865 88.1248 91.0713Z" fill="#FCDD59"/>
<path opacity="0.7" d="M88.1248 91.0713C91.4517 86.6724 94.7787 82.1044 97.5376 77.1979C98.1867 76.0136 98.8359 74.7447 99.485 73.4758C99.8096 72.799 100.134 72.0377 100.459 71.2763C100.783 70.5996 101.351 69.669 101.433 68.9923C102.406 58.2488 98.9171 50.3815 102.244 41.7529L115.633 47.167C115.633 47.167 114.497 62.4785 111.9 71.6993C110.277 77.3671 106.626 82.2735 103.137 86.8416C102.001 88.2797 100.946 89.7178 99.8908 91.1559C98.8359 92.5095 97.6999 93.7784 96.645 95.1319C95.1032 97.1621 94.5353 99.1078 95.7524 101.561C95.8336 101.73 95.9147 101.815 95.9147 101.984C96.2393 102.576 94.6975 103.338 93.6427 101.984C92.0198 99.7846 92.2632 99.9537 90.8026 98.0927C89.91 96.9929 88.9363 95.724 88.1248 94.7089C87.3134 93.6092 87.3134 92.0865 88.1248 91.0713Z" fill="white"/>
<path opacity="0.3" d="M91.3706 86.6729C93.1558 88.9569 96.8073 91.8331 98.4302 93.0174C98.1056 93.4404 97.6999 93.8634 97.3753 94.2863C94.0484 92.0023 91.4518 89.1261 90.478 87.9418C90.7215 87.5188 91.046 87.0958 91.3706 86.6729Z" fill="#FCDD59"/>
<path opacity="0.3" d="M88.1246 91.0719C88.1246 90.9873 88.2057 90.9873 88.2057 90.9873C88.7738 91.5795 89.1795 92.5946 89.2606 93.6943C89.3418 94.4557 89.1795 95.1324 88.936 95.7246C88.6926 95.3862 88.4492 95.0478 88.2057 94.794C87.3131 93.6097 87.3131 92.087 88.1246 91.0719Z" fill="#FCDD59"/>
<path d="M117.743 24.0736C119.123 26.1885 120.827 28.3033 122.936 30.1644C123.991 31.0949 125.208 31.9409 126.507 32.7022C127.156 33.0406 127.886 33.379 128.616 33.6328L129.184 33.802L129.347 33.8866C129.509 33.8866 129.59 33.9711 129.752 33.9711C129.996 34.0557 130.239 34.0557 130.483 34.0557C131.375 34.1403 132.025 33.9711 132.511 33.8866C133.566 33.6328 134.215 33.2098 134.865 32.7868C135.514 32.3639 136.082 32.0255 136.65 31.6025C137.705 30.7566 138.678 29.9106 139.571 29.0647C141.356 27.2882 142.979 25.4271 144.44 23.3969C145.089 22.4663 144.926 21.1128 144.034 20.4361C143.304 19.9285 142.411 19.8439 141.762 20.3515H141.681C139.733 21.6204 137.867 22.9739 135.919 24.1582C134.946 24.7504 134.053 25.3425 133.161 25.7655C132.674 26.0193 132.268 26.1885 131.862 26.3577C131.457 26.5269 131.051 26.6114 130.97 26.6114C130.889 26.6114 130.97 26.5269 131.294 26.5269C131.375 26.5269 131.457 26.5269 131.538 26.5269C131.619 26.5269 131.619 26.5269 131.7 26.6114C131.781 26.6114 131.7 26.6114 131.7 26.6114L131.457 26.4423C131.132 26.2731 130.726 26.0193 130.402 25.7655C129.671 25.2579 129.022 24.6658 128.373 23.989C127.075 22.6355 125.776 20.859 124.397 19.0826C123.017 17.2215 120.421 16.9677 118.717 18.4058C116.851 19.7593 116.526 22.2126 117.743 24.0736Z" fill="#FCDD59"/>
<path opacity="0.7" d="M117.743 24.0736C119.123 26.1885 120.827 28.3033 122.936 30.1644C123.991 31.0949 125.208 31.9409 126.507 32.7022C127.156 33.0406 127.886 33.379 128.616 33.6328L129.184 33.802L129.347 33.8866C129.509 33.8866 129.59 33.9711 129.752 33.9711C129.996 34.0557 130.239 34.0557 130.483 34.0557C131.375 34.1403 132.025 33.9711 132.511 33.8866C133.566 33.6328 134.215 33.2098 134.865 32.7868C135.514 32.3639 136.082 32.0255 136.65 31.6025C137.705 30.7566 138.678 29.9106 139.571 29.0647C141.356 27.2882 142.979 25.4271 144.44 23.3969C145.089 22.4663 144.926 21.1128 144.034 20.4361C143.304 19.9285 142.411 19.8439 141.762 20.3515H141.681C139.733 21.6204 137.867 22.9739 135.919 24.1582C134.946 24.7504 134.053 25.3425 133.161 25.7655C132.674 26.0193 132.268 26.1885 131.862 26.3577C131.457 26.5269 131.051 26.6114 130.97 26.6114C130.889 26.6114 130.97 26.5269 131.294 26.5269C131.375 26.5269 131.457 26.5269 131.538 26.5269C131.619 26.5269 131.619 26.5269 131.7 26.6114C131.781 26.6114 131.7 26.6114 131.7 26.6114L131.457 26.4423C131.132 26.2731 130.726 26.0193 130.402 25.7655C129.671 25.2579 129.022 24.6658 128.373 23.989C127.075 22.6355 125.776 20.859 124.397 19.0826C123.017 17.2215 120.421 16.9677 118.717 18.4058C116.851 19.7593 116.526 22.2126 117.743 24.0736Z" fill="white"/>
<path d="M147.36 18.5754L146.387 20.2673C146.387 20.2673 145.656 22.4667 144.196 22.8897L140.22 21.5362L140.382 21.1978C140.869 20.4364 140.869 18.8291 140.625 17.5602C140.463 16.2913 141.112 16.2067 141.599 16.5451C141.843 16.7143 142.086 17.3065 142.248 17.9832C142.411 17.7294 142.654 17.4756 142.898 17.2219L144.115 15.9529C144.602 15.4454 145.494 15.3608 145.981 15.8684L146.955 16.7989C147.604 17.2219 147.685 17.9832 147.36 18.5754Z" fill="#FCDD59"/>
<path opacity="0.7" d="M147.36 18.5754L146.387 20.2673C146.387 20.2673 145.656 22.4667 144.196 22.8897L140.22 21.5362L140.382 21.1978C140.869 20.4364 140.869 18.8291 140.625 17.5602C140.463 16.2913 141.112 16.2067 141.599 16.5451C141.843 16.7143 142.086 17.3065 142.248 17.9832C142.411 17.7294 142.654 17.4756 142.898 17.2219L144.115 15.9529C144.602 15.4454 145.494 15.3608 145.981 15.8684L146.955 16.7989C147.604 17.2219 147.685 17.9832 147.36 18.5754Z" fill="white"/>
<path d="M110.521 12.4842C114.253 13.4148 119.446 15.6988 122.936 17.9829C124.153 18.8288 124.802 20.3515 124.477 21.7896C122.936 29.7415 119.365 40.4849 115.47 47.2525L97.5374 39.5544C97.3752 36.2552 101.757 25.5963 106.22 15.2758C107.113 13.3302 108.654 11.9767 110.521 12.4842Z" fill="#FCDD59"/>
<path opacity="0.8" d="M110.521 12.4842C114.253 13.4148 119.446 15.6988 122.936 17.9829C124.153 18.8288 124.802 20.3515 124.477 21.7896C122.936 29.7415 119.365 40.4849 115.47 47.2525L97.5374 39.5544C97.3752 36.2552 101.757 25.5963 106.22 15.2758C107.113 13.3302 108.654 11.9767 110.521 12.4842Z" fill="white"/>
<path opacity="0.3" d="M103.542 21.7894L107.113 20.5205C106.301 22.72 103.461 25.427 101.433 27.0343C102.082 25.3424 102.812 23.5659 103.542 21.7894Z" fill="#FCDD59"/>
<path d="M111.738 4.10908C113.199 1.14828 116.445 -0.289816 120.258 0.0485611C123.504 0.302344 126.344 3.77071 126.02 5.63178C125.695 7.49285 122.936 8.2542 122.449 8.93095L124.721 10.6228C125.857 11.4688 126.101 13.0761 125.208 14.2604C124.234 15.5293 123.017 16.7982 122.287 17.7287C116.039 17.5596 111.495 15.1063 109.791 12.7377C110.44 9.6923 110.278 6.98528 111.738 4.10908Z" fill="#FCDD59"/>
<path opacity="0.8" d="M111.738 4.10908C113.199 1.14828 116.445 -0.289816 120.258 0.0485611C123.504 0.302344 126.344 3.77071 126.02 5.63178C125.695 7.49285 122.936 8.2542 122.449 8.93095L124.721 10.6228C125.857 11.4688 126.101 13.0761 125.208 14.2604C124.234 15.5293 123.017 16.7982 122.287 17.7287C116.039 17.5596 111.495 15.1063 109.791 12.7377C110.44 9.6923 110.278 6.98528 111.738 4.10908Z" fill="white"/>
<path d="M114.74 5.88553C113.523 9.1847 115.065 12.9068 118.23 14.1758C121.394 15.4447 124.965 13.8374 126.182 10.5382C127.399 7.23904 125.857 3.51689 122.693 2.24798C119.528 0.979067 116.039 2.58636 114.74 5.88553Z" fill="#2A2A2A"/>
<path d="M62.0779 82.1058C62.159 79.3142 62.3213 79.568 62.3213 77.1994C62.4025 75.7613 62.4025 74.154 62.4025 72.8005C62.4025 71.4469 63.295 70.2626 64.5933 70.0088C65.6482 69.7551 66.7843 69.5859 67.8391 69.3321C69.2186 68.9937 70.598 68.6553 71.9775 68.2324C73.0324 67.894 74.0873 67.5556 75.1421 67.1326C76.2782 66.7097 77.333 66.2867 78.4691 65.7791C79.7674 65.187 80.9845 64.5948 82.2829 64.0027C83.6623 63.3259 85.0418 62.5646 86.4212 61.8032C91.7768 52.5824 91.8579 46.4917 97.6192 39.3857L109.953 45.2227C109.953 45.2227 100.946 61.9724 94.7791 68.9937C91.2087 73.0542 85.6909 74.9153 80.7411 76.2688C77.1708 77.1993 73.5192 77.9607 69.8677 78.6375C68.4883 78.8912 66.9466 78.9758 65.7294 79.9064C64.7557 80.5831 64.2688 81.6828 64.0254 82.8672C63.9442 83.1209 63.9442 83.3747 63.8631 83.5439C63.7008 84.3899 61.9967 83.7977 62.0779 82.1058Z" fill="#FCDD59"/>
<path opacity="0.8" d="M62.0779 82.1058C62.159 79.3142 62.3213 79.568 62.3213 77.1994C62.4025 75.7613 62.4025 74.154 62.4025 72.8005C62.4025 71.4469 63.295 70.2626 64.5933 70.0088C65.6482 69.7551 66.7843 69.5859 67.8391 69.3321C69.2186 68.9937 70.598 68.6553 71.9775 68.2324C73.0324 67.894 74.0873 67.5556 75.1421 67.1326C76.2782 66.7097 77.333 66.2867 78.4691 65.7791C79.7674 65.187 80.9845 64.5948 82.2829 64.0027C83.6623 63.3259 85.0418 62.5646 86.4212 61.8032C91.7768 52.5824 91.8579 46.4917 97.6192 39.3857L109.953 45.2227C109.953 45.2227 100.946 61.9724 94.7791 68.9937C91.2087 73.0542 85.6909 74.9153 80.7411 76.2688C77.1708 77.1993 73.5192 77.9607 69.8677 78.6375C68.4883 78.8912 66.9466 78.9758 65.7294 79.9064C64.7557 80.5831 64.2688 81.6828 64.0254 82.8672C63.9442 83.1209 63.9442 83.3747 63.8631 83.5439C63.7008 84.3899 61.9967 83.7977 62.0779 82.1058Z" fill="white"/>
<path opacity="0.3" d="M68.326 69.2476C68.8129 69.163 69.2997 68.9938 69.7866 68.9092C69.7866 71.87 71.0849 76.861 71.5718 78.3837C71.0849 78.4683 70.5169 78.5529 70.03 78.7221C68.5694 74.7462 68.326 70.5165 68.326 69.2476Z" fill="#FCDD59"/>
<path opacity="0.3" d="M62.4025 72.8846C62.4025 71.5311 63.295 70.3468 64.5933 70.093C64.8368 70.0084 65.0802 70.0084 65.4048 69.9238C65.3236 70.6852 64.8368 71.6157 64.1065 72.3771C63.6196 72.8846 62.9705 73.223 62.4836 73.3076C62.4025 73.1384 62.4025 72.9692 62.4025 72.8846Z" fill="#FCDD59"/>
<path d="M115.876 5.97017C115.551 7.23909 116.931 8.5926 118.067 7.49287C118.959 6.56234 120.339 5.12423 121.394 4.36289C122.53 3.60154 120.988 2.33262 119.203 2.84019C117.58 3.26316 116.282 4.70126 115.876 5.97017Z" fill="white"/>
<path d="M115.795 46.8293C116.363 47.0831 115.309 48.0982 115.309 48.0982C115.309 48.0982 103.948 44.0377 97.0511 39.8926C96.9699 39.0466 97.6191 38.5391 97.6191 38.5391C97.6191 38.5391 106.058 43.1072 115.795 46.8293Z" fill="#FCDD59"/>
<path opacity="0.5" d="M115.795 46.8293C116.363 47.0831 115.309 48.0982 115.309 48.0982C115.309 48.0982 103.948 44.0377 97.0511 39.8926C96.9699 39.0466 97.6191 38.5391 97.6191 38.5391C97.6191 38.5391 106.058 43.1072 115.795 46.8293Z" fill="white"/>
<path d="M107.438 11.8917C105.166 13.0761 103.056 14.345 101.027 15.6985C99.9723 16.3752 98.9174 17.052 97.9436 17.8133C96.8888 18.5747 95.915 19.336 94.8602 20.2666L94.4544 20.6049L93.9676 21.0279C93.643 21.3663 93.3996 21.6201 93.1561 21.9585C92.9127 22.2968 92.6693 22.5506 92.4258 22.8044C92.1824 23.0582 92.0201 23.3966 91.7767 23.6503C90.9652 24.7501 90.3161 25.9344 89.6669 27.0341C88.4497 29.3182 87.3137 31.6022 86.4211 34.0554C86.0154 35.1552 86.5834 36.4241 87.6383 36.7624C88.4497 37.1008 89.2612 36.847 89.8292 36.2549V36.1703C91.4521 34.3938 92.9938 32.4481 94.6167 30.6717C96.1585 28.8952 97.7813 27.1187 99.0797 26.3574C100.946 25.173 102.975 23.9887 105.003 22.8044L111.17 19.2514C113.118 18.1517 113.848 15.5293 112.712 13.499C111.819 11.638 109.385 10.8766 107.438 11.8917Z" fill="#FCDD59"/>
<path opacity="0.8" d="M107.438 11.8917C105.166 13.0761 103.056 14.345 101.027 15.6985C99.9723 16.3752 98.9174 17.052 97.9436 17.8133C96.8888 18.5747 95.915 19.336 94.8602 20.2666L94.4544 20.6049L93.9676 21.0279C93.643 21.3663 93.3996 21.6201 93.1561 21.9585C92.9127 22.2968 92.6693 22.5506 92.4258 22.8044C92.1824 23.0582 92.0201 23.3966 91.7767 23.6503C90.9652 24.7501 90.3161 25.9344 89.6669 27.0341C88.4497 29.3182 87.3137 31.6022 86.4211 34.0554C86.0154 35.1552 86.5834 36.4241 87.6383 36.7624C88.4497 37.1008 89.2612 36.847 89.8292 36.2549V36.1703C91.4521 34.3938 92.9938 32.4481 94.6167 30.6717C96.1585 28.8952 97.7813 27.1187 99.0797 26.3574C100.946 25.173 102.975 23.9887 105.003 22.8044L111.17 19.2514C113.118 18.1517 113.848 15.5293 112.712 13.499C111.819 11.638 109.385 10.8766 107.438 11.8917Z" fill="white"/>
<path d="M84.555 38.2851L85.2041 36.5086C85.2041 36.5086 85.6099 34.2246 86.9893 33.5479L91.0465 34.2246L90.8843 34.563C90.4785 35.4089 90.8031 36.9316 91.1277 38.2005C91.5334 39.4694 90.8842 39.554 90.3162 39.3849C89.9917 39.2157 89.7482 38.7081 89.4236 38.1159C89.2614 38.4543 89.0991 38.7081 88.9368 38.9619L87.963 40.4C87.5573 40.9921 86.7459 41.1613 86.0967 40.7384L84.9607 39.977C84.4738 39.6386 84.3115 38.8773 84.555 38.2851Z" fill="#FCDD59"/>
<path opacity="0.8" d="M84.555 38.2851L85.2041 36.5086C85.2041 36.5086 85.6099 34.2246 86.9893 33.5479L91.0465 34.2246L90.8843 34.563C90.4785 35.4089 90.8031 36.9316 91.1277 38.2005C91.5334 39.4694 90.8842 39.554 90.3162 39.3849C89.9917 39.2157 89.7482 38.7081 89.4236 38.1159C89.2614 38.4543 89.0991 38.7081 88.9368 38.9619L87.963 40.4C87.5573 40.9921 86.7459 41.1613 86.0967 40.7384L84.9607 39.977C84.4738 39.6386 84.3115 38.8773 84.555 38.2851Z" fill="white"/>
<path opacity="0.3" d="M110.927 21.6201L111.9 21.7047L117.986 37.0163C117.662 37.0163 117.337 37.0163 117.013 36.9317C117.013 36.9317 109.06 33.8863 106.707 32.702C108.249 29.2336 110.927 21.6201 110.927 21.6201Z" fill="#FCDD59"/>
<path d="M121.962 25.596C121.638 28.3877 119.609 34.2247 117.905 36.9317C114.903 35.8319 109.953 33.8863 107.6 32.702C109.223 29.2336 110.927 24.4117 111.819 21.6201C114.416 21.8739 120.015 24.0733 121.962 25.596Z" fill="white"/>
<path opacity="0.3" d="M115.958 28.9802C116.282 30.1645 117.418 30.7566 118.554 30.4183C119.69 30.0799 120.258 28.8956 119.934 27.7112C119.609 26.5269 118.473 25.9348 117.337 26.2731C116.282 26.6115 115.633 27.7958 115.958 28.9802Z" fill="#FCDD59"/>
<path opacity="0.6" d="M114.416 26.0192C114.497 26.3576 114.903 26.6114 115.308 26.5268C115.633 26.4422 115.876 26.0192 115.795 25.5962C115.714 25.2578 115.308 25.0041 114.903 25.0887C114.497 25.2578 114.254 25.6808 114.416 26.0192Z" fill="#FCDD59"/>
<path opacity="0.6" d="M112.55 25.2575C112.631 25.5959 113.037 25.8496 113.442 25.765C113.767 25.6805 114.01 25.2575 113.929 24.8345C113.848 24.4961 113.442 24.2423 113.037 24.3269C112.712 24.4961 112.468 24.9191 112.55 25.2575Z" fill="#FCDD59"/>
<path opacity="0.5" d="M110.034 31.8557L117.499 34.9857L117.986 33.463L110.521 30.333L110.034 31.8557Z" fill="#FCDD59"/>
<path d="M260.07 194.106C255.526 198.844 245.87 208.91 245.87 208.91L206.109 169.828C219.823 164.414 246.438 179.894 260.07 194.106Z" fill="#2A2A2A"/>
<path d="M210.572 245.708C215.116 240.971 224.772 230.904 224.772 230.904L187.284 189.453C182.09 203.75 196.94 231.581 210.572 245.708Z" fill="#2A2A2A"/>
<path d="M156.205 152.401L140.707 121.271L170.568 137.428C180.143 142.588 188.988 149.187 196.859 156.885L247.736 206.88L222.744 232.935L174.787 179.894C167.484 171.689 161.155 162.468 156.205 152.401Z" fill="#0C6932"/>
<path opacity="0.6" d="M156.205 152.401L140.707 121.271L170.568 137.428C180.143 142.588 188.988 149.187 196.859 156.885L247.736 206.88L222.744 232.935L174.787 179.894C167.484 171.689 161.155 162.468 156.205 152.401Z" fill="white"/>
<path d="M188.014 181.502C182.233 181.502 177.546 176.616 177.546 170.589C177.546 164.563 182.233 159.677 188.014 159.677C193.795 159.677 198.481 164.563 198.481 170.589C198.481 176.616 193.795 181.502 188.014 181.502Z" fill="white"/>
<path d="M188.014 177.611C184.294 177.611 181.279 174.467 181.279 170.59C181.279 166.712 184.294 163.568 188.014 163.568C191.734 163.568 194.749 166.712 194.749 170.59C194.749 174.467 191.734 177.611 188.014 177.611Z" fill="#0C6932"/>
<path opacity="0.3" d="M214.304 223.63L238.81 198.083L218.767 178.372L195.479 202.735L214.304 223.63Z" fill="#0C6932"/>
<path d="M254.552 217.539C272.891 219.062 278.977 231.328 281.005 247.57C282.06 255.86 282.547 264.235 289.201 269.142C291.067 270.495 290.175 273.456 287.903 273.456C263.316 272.694 251.793 260.09 250.333 254.845C250.82 258.144 251.55 260.767 252.361 262.882C253.173 264.996 250.982 266.942 249.116 265.758C242.218 261.274 233.536 252.899 232.968 239.449C238.08 231.92 254.552 217.539 254.552 217.539Z" fill="#0C6932"/>
<path opacity="0.2" d="M254.552 217.539C272.891 219.062 278.977 231.328 281.005 247.57C282.06 255.86 282.547 264.235 289.201 269.142C291.067 270.495 290.175 273.456 287.903 273.456C263.316 272.694 251.793 260.09 250.333 254.845C250.82 258.144 251.55 260.767 252.361 262.882C253.173 264.996 250.982 266.942 249.116 265.758C242.218 261.274 233.536 252.899 232.968 239.449C238.08 231.92 254.552 217.539 254.552 217.539Z" fill="white"/>
<path d="M230.128 245.117L259.502 214.578L243.842 211.025L226.72 228.875L230.128 245.117Z" fill="#0C6932"/>
</svg>
