<svg xmlns="http://www.w3.org/2000/svg" width="26.746" height="26.746" viewBox="0 0 26.746 26.746">
  <g id="Layer_2" data-name="Layer 2" transform="translate(-2 -2)">
    <path id="Path_141" data-name="Path 141" d="M15.373,2A13.373,13.373,0,1,0,28.746,15.373,13.373,13.373,0,0,0,15.373,2Zm0,24.517A11.144,11.144,0,1,1,26.517,15.373,11.144,11.144,0,0,1,15.373,26.517Z" transform="translate(0)" fill="#0c6932"/>
    <path id="Path_142" data-name="Path 142" d="M8.627,9.372a1.114,1.114,0,0,0-1.114,1.114v7.578a1.114,1.114,0,0,0,2.229,0V10.487A1.114,1.114,0,0,0,8.627,9.372Zm0-4.569A1.181,1.181,0,0,0,7.49,5.962v.178A1.048,1.048,0,0,0,8.627,7.188,1.159,1.159,0,0,0,9.741,6.074V5.806a1,1,0,0,0-1.114-1Z" transform="translate(6.746 3.437)" fill="#0c6932"/>
  </g>
</svg>
