<svg xmlns="http://www.w3.org/2000/svg" width="16.333" height="11.667" viewBox="0 0 16.333 11.667">
  <g id="Group_30" data-name="Group 30" transform="translate(0 -3)">
    <path id="Path_33" data-name="Path 33" d="M14.583,3H1.75A1.75,1.75,0,0,0,0,4.75v8.167a1.75,1.75,0,0,0,1.75,1.75H14.583a1.75,1.75,0,0,0,1.75-1.75V4.75A1.75,1.75,0,0,0,14.583,3ZM12.1,9.032a.584.584,0,1,0-.909.732l.034.038,3.237,3.7H1.867L5.1,9.8a.583.583,0,1,0-.841-.808.414.414,0,0,0-.034.038l-3.062,3.5V4.75L7.1,9.312a1.751,1.751,0,0,0,2.135,0L15.167,4.75v7.782ZM2.3,4.167H14.035L8.522,8.407a.583.583,0,0,1-.712,0Z" fill="#01ab49"/>
  </g>
</svg>
