<svg xmlns="http://www.w3.org/2000/svg" width="12.14" height="16.994" viewBox="0 0 12.14 16.994">
  <g id="Group_77" data-name="Group 77" transform="translate(0)">
    <g id="Group_74" data-name="Group 74" transform="translate(0 0)">
      <g id="Group_73" data-name="Group 73" transform="translate(0 0)">
        <path id="Path_38" data-name="Path 38" d="M12.1,16.4,9.968,11.656a.409.409,0,0,0-.2-.207l-1.061-.5,1.839-3.237.012-.024A5.442,5.442,0,0,0,11.1,5.286,5.382,5.382,0,0,0,9.6,1.522a4.857,4.857,0,0,0-7.1.046A5.389,5.389,0,0,0,1.036,5.254a5.519,5.519,0,0,0,.551,2.439l.012.024,1.839,3.237-1.068.5a.409.409,0,0,0-.2.2L.038,16.4a.435.435,0,0,0,.075.472.386.386,0,0,0,.448.09l2.673-1.25,2.673,1.25a.382.382,0,0,0,.325,0l2.673-1.25,2.673,1.25a.383.383,0,0,0,.162.036.39.39,0,0,0,.286-.126A.435.435,0,0,0,12.1,16.4ZM2.292,7.3a4.579,4.579,0,0,1-.457-2.04A4.369,4.369,0,0,1,6.01.839a4.106,4.106,0,0,1,3.034,1.28,4.528,4.528,0,0,1,1.262,3.167A4.577,4.577,0,0,1,9.848,7.3L6.413,13.344a.39.39,0,0,1-.686,0Zm6.776,7.567a.382.382,0,0,0-.325,0L6.07,16.115,3.4,14.866a.382.382,0,0,0-.325,0l-1.852.866,1.61-3.576,1.02-.476,1.191,2.1a1.169,1.169,0,0,0,2.058,0l1.191-2.1,1.02.477,1.61,3.576Z" transform="translate(0 0)" fill="#01ab49"/>
      </g>
    </g>
    <g id="Group_76" data-name="Group 76" transform="translate(4.248 3.419)">
      <g id="Group_75" data-name="Group 75">
        <path id="Path_39" data-name="Path 39" d="M136.194,101.607a1.823,1.823,0,1,0,1.823,1.823A1.825,1.825,0,0,0,136.194,101.607Zm0,2.846a1.024,1.024,0,1,1,1.024-1.024A1.025,1.025,0,0,1,136.194,104.453Z" transform="translate(-134.371 -101.607)" fill="#01ab49"/>
      </g>
    </g>
  </g>
</svg>
